<?xml version="1.0" encoding="UTF-8" standalone="no"?>
<svg
   xmlns:dc="http://purl.org/dc/elements/1.1/"
   xmlns:cc="http://creativecommons.org/ns#"
   xmlns:rdf="http://www.w3.org/1999/02/22-rdf-syntax-ns#"
   xmlns:svg="http://www.w3.org/2000/svg"
   xmlns="http://www.w3.org/2000/svg"
   xmlns:sodipodi="http://sodipodi.sourceforge.net/DTD/sodipodi-0.dtd"
   xmlns:inkscape="http://www.inkscape.org/namespaces/inkscape"
   id="Logo-6_Grey_100x100"
   data-name="Logo-6 (Grey) 100x100"
   viewBox="0 0 100 100"
   version="1.1"
   inkscape:version="0.91 r13725"
   sodipodi:docname="LogoAtualizacoes2b.svg"
   inkscape:export-filename="/home/peter/gits/contacoop-livros/docs/CROSSMARK_BW_square_no_text.svg.png"
   inkscape:export-xdpi="90"
   inkscape:export-ydpi="90">
  <metadata
     id="metadata3424">
    <rdf:RDF>
      <cc:Work
         rdf:about="">
        <dc:format>image/svg+xml</dc:format>
        <dc:type
           rdf:resource="http://purl.org/dc/dcmitype/StillImage" />
        <dc:title>CROSSMARK_logo_4</dc:title>
      </cc:Work>
    </rdf:RDF>
  </metadata>
  <sodipodi:namedview
     pagecolor="#ffffff"
     bordercolor="#666666"
     borderopacity="1"
     objecttolerance="10"
     gridtolerance="10"
     guidetolerance="10"
     inkscape:pageopacity="0"
     inkscape:pageshadow="2"
     inkscape:window-width="1301"
     inkscape:window-height="744"
     id="namedview3422"
     showgrid="false"
     inkscape:snap-text-baseline="true"
     inkscape:zoom="4.2921382"
     inkscape:cx="33.034162"
     inkscape:cy="60.847218"
     inkscape:window-x="65"
     inkscape:window-y="24"
     inkscape:window-maximized="1"
     inkscape:current-layer="Logo-6_Grey_100x100"
     inkscape:snap-others="false"
     inkscape:snap-nodes="false"
     inkscape:snap-bbox="true" />
  <defs
     id="defs3401">
    <marker
       inkscape:stockid="Arrow1Lstart"
       orient="auto"
       refY="0.0"
       refX="0.0"
       id="marker6129"
       style="overflow:visible"
       inkscape:isstock="true">
      <path
         id="path6131"
         d="M 0.0,0.0 L 5.0,-5.0 L -12.5,0.0 L 5.0,5.0 L 0.0,0.0 z "
         style="fill-rule:evenodd;stroke:none;stroke-width:1pt;stroke-opacity:1;fill:#ffffff;fill-opacity:1"
         transform="scale(0.8) translate(12.5,0)" />
    </marker>
    <marker
       inkscape:stockid="Arrow1Lstart"
       orient="auto"
       refY="0.0"
       refX="0.0"
       id="marker5213"
       style="overflow:visible"
       inkscape:isstock="true">
      <path
         id="path5215"
         d="M 0.0,0.0 L 5.0,-5.0 L -12.5,0.0 L 5.0,5.0 L 0.0,0.0 z "
         style="fill-rule:evenodd;stroke:none;stroke-width:1pt;stroke-opacity:1;fill:#f9f9f9;fill-opacity:1"
         transform="scale(0.8) translate(12.5,0)" />
    </marker>
    <marker
       inkscape:stockid="Arrow1Lstart"
       orient="auto"
       refY="0.0"
       refX="0.0"
       id="Arrow1Lstart"
       style="overflow:visible"
       inkscape:isstock="true">
      <path
         id="path4153"
         d="M 0.0,0.0 L 5.0,-5.0 L -12.5,0.0 L 5.0,5.0 L 0.0,0.0 z "
         style="fill-rule:evenodd;stroke:none;stroke-width:1pt;stroke-opacity:1;fill:#ffffff;fill-opacity:1"
         transform="scale(0.8) translate(12.5,0)" />
    </marker>
    <marker
       inkscape:stockid="Arrow2Lend"
       orient="auto"
       refY="0.0"
       refX="0.0"
       id="Arrow2Lend"
       style="overflow:visible;"
       inkscape:isstock="true">
      <path
         id="path4174"
         style="fill-rule:evenodd;stroke-width:0.625;stroke-linejoin:round;stroke:#000000;stroke-opacity:1;fill:#000000;fill-opacity:1"
         d="M 8.7185878,4.0337352 L -2.2072895,0.016013256 L 8.7185884,-4.0017078 C 6.9730900,-1.6296469 6.9831476,1.6157441 8.7185878,4.0337352 z "
         transform="scale(1.1) rotate(180) translate(1,0)" />
    </marker>
    <style
       id="style3403">.cls-1{stroke:#948f8f;stroke-miterlimit:10;stroke-width:0.75px;fill:url(#linear-gradient);}.cls-2{fill:#989898;}.cls-3{fill:#747474;}.cls-4{fill:#535353;}.cls-5{fill:#9c9c9c;}</style>
    <linearGradient
       id="linear-gradient"
       x1="50"
       y1="15.18"
       x2="50"
       y2="94.72"
       gradientUnits="userSpaceOnUse">
      <stop
         offset="0"
         stop-color="#fff"
         id="stop3406" />
      <stop
         offset="1"
         stop-color="#c4c4c4"
         id="stop3408" />
    </linearGradient>
  </defs>
  <title
     id="title3410">CROSSMARK_logo_4</title>
  <polygon
     class="cls-2"
     points="35.95,65.11 64.05,46.38 64.05,23.91 35.95,23.91 35.95,65.11 "
     id="polygon3414"
     transform="translate(0,-10)"
     style="fill:#666666;fill-opacity:0.90980393" />
  <polygon
     class="cls-3"
     points="64.05,65.11 35.95,46.38 35.95,23.91 64.05,23.91 64.05,65.11 "
     id="polygon3416"
     transform="translate(0,-10)"
     style="fill:#747474" />
  <path
     class="cls-4"
     d="M 50,9 A 31,31 0 1 0 81,40 31,31 0 0 0 50,9 Z m 0,54.41 A 23.41,23.41 0 1 1 73.41,40 23.41,23.41 0 0 1 50,63.41 Z"
     id="path3418"
     inkscape:connector-curvature="0"
     style="fill:#535353" />
  <path
     class="cls-5"
     d="M 67.18,55.86"
     id="path3420"
     inkscape:connector-curvature="0"
     style="fill:#9c9c9c" />
  <path
     style="fill:#ffffff;fill-opacity:1;stroke:none;stroke-width:0.80000001;stroke-miterlimit:4;stroke-dasharray:none;stroke-opacity:1"
     id="path10283"
     sodipodi:type="arc"
     sodipodi:cx="16.371729"
     sodipodi:cy="41.212006"
     sodipodi:rx="4.0382595"
     sodipodi:ry="3.8213291"
     sodipodi:start="0"
     sodipodi:end="3.1415927"
     sodipodi:open="true"
     d="m 20.409988,41.212006 a 4.0382595,3.8213291 0 0 1 -2.019129,3.309368 4.0382595,3.8213291 0 0 1 -4.03826,0 4.0382595,3.8213291 0 0 1 -2.01913,-3.309369"
     transform="matrix(0.97914314,-0.20317165,0.16208319,0.9867771,0,0)" />
  <rect
     style="fill:#ffffff;fill-opacity:1;stroke:none;stroke-width:0.80000001;stroke-miterlimit:4;stroke-dasharray:none;stroke-opacity:1"
     id="rect10289"
     width="13.629568"
     height="3.2617764"
     x="16.075905"
     y="34.977798"
     rx="0.18780901"
     ry="1.4351815" />
  <path
     transform="matrix(0.9943078,0.10654573,-0.15261312,0.98828601,0,0)"
     d="m 32.113268,31.836052 a 3.7922018,3.5259502 0 0 1 -1.896101,3.053562 3.7922018,3.5259502 0 0 1 -3.792202,0 3.7922018,3.5259502 0 0 1 -1.896101,-3.053562"
     sodipodi:open="true"
     sodipodi:end="3.1415927"
     sodipodi:start="0"
     sodipodi:ry="3.5259502"
     sodipodi:rx="3.7922018"
     sodipodi:cy="31.836052"
     sodipodi:cx="28.321066"
     sodipodi:type="arc"
     id="path10291"
     style="fill:#4d4d4d;fill-opacity:0.98039216;stroke:none;stroke-width:0.80000001;stroke-miterlimit:4;stroke-dasharray:none;stroke-opacity:1" />
</svg>
